<?xml version="1.0" ?>
<!DOCTYPE svg  PUBLIC '-//W3C//DTD SVG 1.1//EN'  'http://www.w3.org/Graphics/SVG/1.1/DTD/svg11.dtd'>
<!-- Uploaded to: SVG Repo, www.svgrepo.com, Generator: SVG Repo Mixer Tools -->
<svg fill="#000000" width="800px" height="800px" viewBox="-1.5 0 28 28" style="fill-rule:evenodd;clip-rule:evenodd;stroke-linejoin:round;stroke-miterlimit:2;" version="1.1" xml:space="preserve" xmlns="http://www.w3.org/2000/svg" xmlns:serif="http://www.serif.com/" xmlns:xlink="http://www.w3.org/1999/xlink">
<g transform="matrix(1,0,0,1,-90,-127)">
<g id="ExploreNFT-digital-future-system-security-crypto-sign-symbol">
<g transform="matrix(1,0,0,1,0,149)">
<rect height="1" width="1" x="113" y="5"/>
</g>
<g transform="matrix(1,0,0,1,0,149)">
<rect height="1" width="1.001" x="112" y="5"/>
</g>
<g transform="matrix(1,0,0,1,0,147)">
<rect height="1" width="1" x="114" y="6"/>
</g>
<g transform="matrix(1,0,0,1,0,147)">
<rect height="1" style="fill:rgb(91,110,225);" width="1" x="113" y="6"/>
</g>
<g transform="matrix(1,0,0,1,0,147)">
<rect height="1" style="fill:rgb(91,110,225);" width="1.001" x="112" y="6"/>
</g>
<g transform="matrix(1,0,0,1,0,147)">
<rect height="1" width="1" x="111" y="6"/>
</g>
<g transform="matrix(1,0,0,1,0,145)">
<rect height="1" width="1" x="114" y="7"/>
</g>
<g transform="matrix(1,0,0,1,0,145)">
<rect height="1" style="fill:rgb(91,110,225);" width="1" x="113" y="7"/>
</g>
<g transform="matrix(1,0,0,1,0,145)">
<rect height="1" style="fill:rgb(91,110,225);" width="1.001" x="112" y="7"/>
</g>
<g transform="matrix(1,0,0,1,0,145)">
<rect height="1" style="fill:rgb(91,110,225);" width="1" x="111" y="7"/>
</g>
<g transform="matrix(1,0,0,1,0,145)">
<rect height="1" width="1" x="110" y="7"/>
</g>
<g transform="matrix(1,0,0,1,0,143)">
<rect height="1" width="1" x="113" y="8"/>
</g>
<g transform="matrix(1,0,0,1,0,143)">
<rect height="1" style="fill:rgb(91,110,225);" width="1.001" x="112" y="8"/>
</g>
<g transform="matrix(1,0,0,1,0,143)">
<rect height="1" style="fill:rgb(91,110,225);" width="1" x="111" y="8"/>
</g>
<g transform="matrix(1,0,0,1,0,143)">
<rect height="1" style="fill:rgb(91,110,225);" width="1" x="110" y="8"/>
</g>
<g transform="matrix(1,0,0,1,0,143)">
<rect height="1" width="1" x="109" y="8"/>
</g>
<g transform="matrix(1,0,0,1,0,141)">
<rect height="1" width="1.001" x="112" y="9"/>
</g>
<g transform="matrix(1,0,0,1,0,141)">
<rect height="1" style="fill:rgb(91,110,225);" width="1" x="111" y="9"/>
</g>
<g transform="matrix(1,0,0,1,0,141)">
<rect height="1" style="fill:rgb(91,110,225);" width="1" x="110" y="9"/>
</g>
<g transform="matrix(1,0,0,1,0,141)">
<rect height="1" style="fill:rgb(91,110,225);" width="1" x="109" y="9"/>
</g>
<g transform="matrix(1,0,0,1,0,141)">
<rect height="1" width="1" x="108" y="9"/>
</g>
<g transform="matrix(1,0,0,1,0,141)">
<rect height="1" width="1" x="107" y="9"/>
</g>
<g transform="matrix(1,0,0,1,0,141)">
<rect height="1" width="1" x="106" y="9"/>
</g>
<g transform="matrix(1,0,0,1,0,141)">
<rect height="1" width="1" x="105" y="9"/>
</g>
<g transform="matrix(1,0,0,1,0,141)">
<rect height="1" width="1" x="104" y="9"/>
</g>
<g transform="matrix(1,0,0,1,0,141)">
<rect height="1" width="1.001" x="103" y="9"/>
</g>
<g transform="matrix(1,0,0,1,0,139)">
<rect height="1" width="1" x="111" y="10"/>
</g>
<g transform="matrix(1,0,0,1,0,139)">
<rect height="1" style="fill:rgb(91,110,225);" width="1" x="110" y="10"/>
</g>
<g transform="matrix(1,0,0,1,0,139)">
<rect height="1" style="fill:rgb(91,110,225);" width="1" x="109" y="10"/>
</g>
<g transform="matrix(1,0,0,1,0,139)">
<rect height="1" width="1" x="108" y="10"/>
</g>
<g transform="matrix(1,0,0,1,0,139)">
<rect height="1" style="fill:rgb(91,110,225);" width="1" x="107" y="10"/>
</g>
<g transform="matrix(1,0,0,1,0,139)">
<rect height="1" style="fill:rgb(91,110,225);" width="1" x="106" y="10"/>
</g>
<g transform="matrix(1,0,0,1,0,139)">
<rect height="1" style="fill:rgb(91,110,225);" width="1" x="105" y="10"/>
</g>
<g transform="matrix(1,0,0,1,0,139)">
<rect height="1" style="fill:rgb(91,110,225);" width="1" x="104" y="10"/>
</g>
<g transform="matrix(1,0,0,1,0,139)">
<rect height="1" style="fill:rgb(91,110,225);" width="1.001" x="103" y="10"/>
</g>
<g transform="matrix(1,0,0,1,0,139)">
<rect height="1" width="1" x="102" y="10"/>
</g>
<g transform="matrix(1,0,0,1,0,137)">
<rect height="1" width="1" x="110" y="11"/>
</g>
<g transform="matrix(1,0,0,1,0,137)">
<rect height="1" width="1" x="109" y="11"/>
</g>
<g transform="matrix(1,0,0,1,0,137)">
<rect height="1" style="fill:rgb(91,110,225);" width="1" x="108" y="11"/>
</g>
<g transform="matrix(1,0,0,1,0,137)">
<rect height="1" style="fill:rgb(91,110,225);" width="1" x="107" y="11"/>
</g>
<g transform="matrix(1,0,0,1,0,137)">
<rect height="1" width="1" x="106" y="11"/>
</g>
<g transform="matrix(1,0,0,1,0,137)">
<rect height="1" width="1" x="105" y="11"/>
</g>
<g transform="matrix(1,0,0,1,0,137)">
<rect height="1" width="1" x="104" y="11"/>
</g>
<g transform="matrix(1,0,0,1,0,137)">
<rect height="1" style="fill:rgb(91,110,225);" width="1.001" x="103" y="11"/>
</g>
<g transform="matrix(1,0,0,1,0,137)">
<rect height="1" style="fill:rgb(91,110,225);" width="1" x="102" y="11"/>
</g>
<g transform="matrix(1,0,0,1,0,137)">
<rect height="1" width="1" x="101" y="11"/>
</g>
<g transform="matrix(1,0,0,1,0,135)">
<rect height="1" width="1" x="110" y="12"/>
</g>
<g transform="matrix(1,0,0,1,0,135)">
<rect height="1" style="fill:rgb(91,110,225);" width="1" x="109" y="12"/>
</g>
<g transform="matrix(1,0,0,1,0,135)">
<rect height="1" style="fill:rgb(91,110,225);" width="1" x="108" y="12"/>
</g>
<g transform="matrix(1,0,0,1,0,135)">
<rect height="1" width="1" x="107" y="12"/>
</g>
<g transform="matrix(1,0,0,1,0,135)">
<rect height="1" width="1.001" x="103" y="12"/>
</g>
<g transform="matrix(1,0,0,1,0,135)">
<rect height="1" style="fill:rgb(91,110,225);" width="1" x="102" y="12"/>
</g>
<g transform="matrix(1,0,0,1,0,135)">
<rect height="1" style="fill:rgb(91,110,225);" width="1" x="101" y="12"/>
</g>
<g transform="matrix(1,0,0,1,0,135)">
<rect height="1" width="1" x="100" y="12"/>
</g>
<g transform="matrix(1,0,0,1,0,132.999)">
<rect height="1.001" width="1" x="110" y="13"/>
</g>
<g transform="matrix(1,0,0,1,0,132.999)">
<rect height="1.001" style="fill:rgb(91,110,225);" width="1" x="109" y="13"/>
</g>
<g transform="matrix(1,0,0,1,0,132.999)">
<rect height="1.001" width="1" x="108" y="13"/>
</g>
<g transform="matrix(1,0,0,1,0,132.999)">
<rect height="1.001" width="1" x="102" y="13"/>
</g>
<g transform="matrix(1,0,0,1,0,132.999)">
<rect height="1.001" style="fill:rgb(91,110,225);" width="1" x="101" y="13"/>
</g>
<g transform="matrix(1,0,0,1,0,132.999)">
<rect height="1.001" width="1" x="100" y="13"/>
</g>
<g transform="matrix(1,0,0,1,0,131)">
<rect height="1" width="1" x="110" y="14"/>
</g>
<g transform="matrix(1,0,0,1,0,131)">
<rect height="1" style="fill:rgb(91,110,225);" width="1" x="109" y="14"/>
</g>
<g transform="matrix(1,0,0,1,0,131)">
<rect height="1" width="1" x="108" y="14"/>
</g>
<g transform="matrix(1,0,0,1,0,131)">
<rect height="1" style="fill:white;" width="1.001" x="103" y="14"/>
</g>
<g transform="matrix(1,0,0,1,0,131)">
<rect height="1" width="1" x="102" y="14"/>
</g>
<g transform="matrix(1,0,0,1,0,131)">
<rect height="1" style="fill:rgb(91,110,225);" width="1" x="101" y="14"/>
</g>
<g transform="matrix(1,0,0,1,0,131)">
<rect height="1" width="1" x="100" y="14"/>
</g>
<g transform="matrix(1,0,0,1,0,131)">
<rect height="1" width="1" x="99" y="14"/>
</g>
<g transform="matrix(1,0,0,1,0,131)">
<rect height="1" width="1" x="98" y="14"/>
</g>
<g transform="matrix(1,0,0,1,0,131)">
<rect height="1" width="1" x="97" y="14"/>
</g>
<g transform="matrix(1,0,0,1,0,131)">
<rect height="1" width="1" x="96" y="14"/>
</g>
<g transform="matrix(1,0,0,1,0,131)">
<rect height="1" width="1" x="95" y="14"/>
</g>
<g transform="matrix(1,0,0,1,0,131)">
<rect height="1" width="1.001" x="94" y="14"/>
</g>
<g transform="matrix(1,0,0,1,0,131)">
<rect height="1" width="1" x="93" y="14"/>
</g>
<g transform="matrix(1,0,0,1,0,131)">
<rect height="1" width="1" x="92" y="14"/>
</g>
<g transform="matrix(1,0,0,1,0,131)">
<rect height="1" width="1" x="91" y="14"/>
</g>
<g transform="matrix(1,0,0,1,0,131)">
<rect height="1" width="1" x="90" y="14"/>
</g>
<g transform="matrix(1,0,0,1,0,129)">
<rect height="1" width="1" x="110" y="15"/>
</g>
<g transform="matrix(1,0,0,1,0,129)">
<rect height="1" style="fill:rgb(91,110,225);" width="1" x="109" y="15"/>
</g>
<g transform="matrix(1,0,0,1,0,129)">
<rect height="1" width="1" x="108" y="15"/>
</g>
<g transform="matrix(1,0,0,1,0,129)">
<rect height="1" style="fill:white;" width="1.001" x="103" y="15"/>
</g>
<g transform="matrix(1,0,0,1,0,129)">
<rect height="1" width="1" x="102" y="15"/>
</g>
<g transform="matrix(1,0,0,1,0,129)">
<rect height="1" style="fill:rgb(91,110,225);" width="1" x="101" y="15"/>
</g>
<g transform="matrix(1,0,0,1,0,129)">
<rect height="1" width="1" x="100" y="15"/>
</g>
<g transform="matrix(1,0,0,1,0,129)">
<rect height="1" style="fill:rgb(155,173,183);" width="1" x="99" y="15"/>
</g>
<g transform="matrix(1,0,0,1,0,129)">
<rect height="1" style="fill:rgb(155,173,183);" width="1" x="98" y="15"/>
</g>
<g transform="matrix(1,0,0,1,0,129)">
<rect height="1" style="fill:rgb(155,173,183);" width="1" x="97" y="15"/>
</g>
<g transform="matrix(1,0,0,1,0,129)">
<rect height="1" style="fill:rgb(155,173,183);" width="1" x="96" y="15"/>
</g>
<g transform="matrix(1,0,0,1,0,129)">
<rect height="1" style="fill:rgb(155,173,183);" width="1" x="95" y="15"/>
</g>
<g transform="matrix(1,0,0,1,0,129)">
<rect height="1" style="fill:rgb(155,173,183);" width="1.001" x="94" y="15"/>
</g>
<g transform="matrix(1,0,0,1,0,129)">
<rect height="1" style="fill:rgb(155,173,183);" width="1" x="93" y="15"/>
</g>
<g transform="matrix(1,0,0,1,0,129)">
<rect height="1" style="fill:rgb(155,173,183);" width="1" x="92" y="15"/>
</g>
<g transform="matrix(1,0,0,1,0,129)">
<rect height="1" style="fill:rgb(155,173,183);" width="1" x="91" y="15"/>
</g>
<g transform="matrix(1,0,0,1,0,129)">
<rect height="1" width="1" x="90" y="15"/>
</g>
<g transform="matrix(1,0,0,1,0,127)">
<rect height="1" width="1" x="110" y="16"/>
</g>
<g transform="matrix(1,0,0,1,0,127)">
<rect height="1" style="fill:rgb(91,110,225);" width="1" x="109" y="16"/>
</g>
<g transform="matrix(1,0,0,1,0,127)">
<rect height="1" style="fill:rgb(91,110,225);" width="1" x="108" y="16"/>
</g>
<g transform="matrix(1,0,0,1,0,127)">
<rect height="1" width="1" x="107" y="16"/>
</g>
<g transform="matrix(1,0,0,1,0,127)">
<rect height="1" style="fill:white;" width="1" x="105" y="16"/>
</g>
<g transform="matrix(1,0,0,1,0,127)">
<rect height="1" style="fill:white;" width="1" x="104" y="16"/>
</g>
<g transform="matrix(1,0,0,1,0,127)">
<rect height="1" width="1.001" x="103" y="16"/>
</g>
<g transform="matrix(1,0,0,1,0,127)">
<rect height="1" style="fill:rgb(91,110,225);" width="1" x="102" y="16"/>
</g>
<g transform="matrix(1,0,0,1,0,127)">
<rect height="1" style="fill:rgb(91,110,225);" width="1" x="101" y="16"/>
</g>
<g transform="matrix(1,0,0,1,0,127)">
<rect height="1" width="1" x="100" y="16"/>
</g>
<g transform="matrix(1,0,0,1,0,127)">
<rect height="1" style="fill:white;" width="1" x="99" y="16"/>
</g>
<g transform="matrix(1,0,0,1,0,127)">
<rect height="1" style="fill:white;" width="1" x="98" y="16"/>
</g>
<g transform="matrix(1,0,0,1,0,127)">
<rect height="1" style="fill:white;" width="1" x="97" y="16"/>
</g>
<g transform="matrix(1,0,0,1,0,127)">
<rect height="1" style="fill:white;" width="1" x="96" y="16"/>
</g>
<g transform="matrix(1,0,0,1,0,127)">
<rect height="1" style="fill:white;" width="1" x="95" y="16"/>
</g>
<g transform="matrix(1,0,0,1,0,127)">
<rect height="1" style="fill:white;" width="1.001" x="94" y="16"/>
</g>
<g transform="matrix(1,0,0,1,0,127)">
<rect height="1" style="fill:white;" width="1" x="93" y="16"/>
</g>
<g transform="matrix(1,0,0,1,0,127)">
<rect height="1" style="fill:white;" width="1" x="92" y="16"/>
</g>
<g transform="matrix(1,0,0,1,0,127)">
<rect height="1" style="fill:white;" width="1" x="91" y="16"/>
</g>
<g transform="matrix(1,0,0,1,0,127)">
<rect height="1" width="1" x="90" y="16"/>
</g>
<g transform="matrix(1,0,0,1,0,125)">
<rect height="1" width="1" x="109" y="17"/>
</g>
<g transform="matrix(1,0,0,1,0,125)">
<rect height="1" style="fill:rgb(91,110,225);" width="1" x="108" y="17"/>
</g>
<g transform="matrix(1,0,0,1,0,125)">
<rect height="1" style="fill:rgb(91,110,225);" width="1" x="107" y="17"/>
</g>
<g transform="matrix(1,0,0,1,0,125)">
<rect height="1" width="1" x="106" y="17"/>
</g>
<g transform="matrix(1,0,0,1,0,125)">
<rect height="1" width="1" x="105" y="17"/>
</g>
<g transform="matrix(1,0,0,1,0,125)">
<rect height="1" width="1" x="104" y="17"/>
</g>
<g transform="matrix(1,0,0,1,0,125)">
<rect height="1" style="fill:rgb(91,110,225);" width="1.001" x="103" y="17"/>
</g>
<g transform="matrix(1,0,0,1,0,125)">
<rect height="1" style="fill:rgb(91,110,225);" width="1" x="102" y="17"/>
</g>
<g transform="matrix(1,0,0,1,0,125)">
<rect height="1" width="1" x="101" y="17"/>
</g>
<g transform="matrix(1,0,0,1,0,125)">
<rect height="1" style="fill:white;" width="1" x="100" y="17"/>
</g>
<g transform="matrix(1,0,0,1,0,125)">
<rect height="1" style="fill:white;" width="1" x="99" y="17"/>
</g>
<g transform="matrix(1,0,0,1,0,125)">
<rect height="1" style="fill:white;" width="1" x="98" y="17"/>
</g>
<g transform="matrix(1,0,0,1,0,125)">
<rect height="1" style="fill:white;" width="1" x="97" y="17"/>
</g>
<g transform="matrix(1,0,0,1,0,125)">
<rect height="1" style="fill:white;" width="1" x="96" y="17"/>
</g>
<g transform="matrix(1,0,0,1,0,125)">
<rect height="1" style="fill:white;" width="1" x="95" y="17"/>
</g>
<g transform="matrix(1,0,0,1,0,125)">
<rect height="1" style="fill:white;" width="1.001" x="94" y="17"/>
</g>
<g transform="matrix(1,0,0,1,0,125)">
<rect height="1" style="fill:white;" width="1" x="93" y="17"/>
</g>
<g transform="matrix(1,0,0,1,0,125)">
<rect height="1" style="fill:white;" width="1" x="92" y="17"/>
</g>
<g transform="matrix(1,0,0,1,0,125)">
<rect height="1" style="fill:white;" width="1" x="91" y="17"/>
</g>
<g transform="matrix(1,0,0,1,0,125)">
<rect height="1" width="1" x="90" y="17"/>
</g>
<g transform="matrix(1,0,0,1,0,123)">
<rect height="1" width="1" x="108" y="18"/>
</g>
<g transform="matrix(1,0,0,1,0,123)">
<rect height="1" style="fill:rgb(91,110,225);" width="1" x="107" y="18"/>
</g>
<g transform="matrix(1,0,0,1,0,123)">
<rect height="1" style="fill:rgb(91,110,225);" width="1" x="106" y="18"/>
</g>
<g transform="matrix(1,0,0,1,0,123)">
<rect height="1" style="fill:rgb(91,110,225);" width="1" x="105" y="18"/>
</g>
<g transform="matrix(1,0,0,1,0,123)">
<rect height="1" style="fill:rgb(91,110,225);" width="1" x="104" y="18"/>
</g>
<g transform="matrix(1,0,0,1,0,123)">
<rect height="1" style="fill:rgb(91,110,225);" width="1.001" x="103" y="18"/>
</g>
<g transform="matrix(1,0,0,1,0,123)">
<rect height="1" width="1" x="102" y="18"/>
</g>
<g transform="matrix(1,0,0,1,0,123)">
<rect height="1" style="fill:white;" width="1" x="101" y="18"/>
</g>
<g transform="matrix(1,0,0,1,0,123)">
<rect height="1" style="fill:white;" width="1" x="100" y="18"/>
</g>
<g transform="matrix(1,0,0,1,0,123)">
<rect height="1" width="1" x="99" y="18"/>
</g>
<g transform="matrix(1,0,0,1,0,123)">
<rect height="1" width="1" x="98" y="18"/>
</g>
<g transform="matrix(1,0,0,1,0,123)">
<rect height="1" width="1" x="97" y="18"/>
</g>
<g transform="matrix(1,0,0,1,0,123)">
<rect height="1" style="fill:white;" width="1" x="96" y="18"/>
</g>
<g transform="matrix(1,0,0,1,0,123)">
<rect height="1" style="fill:white;" width="1" x="95" y="18"/>
</g>
<g transform="matrix(1,0,0,1,0,123)">
<rect height="1" style="fill:white;" width="1.001" x="94" y="18"/>
</g>
<g transform="matrix(1,0,0,1,0,123)">
<rect height="1" style="fill:white;" width="1" x="93" y="18"/>
</g>
<g transform="matrix(1,0,0,1,0,123)">
<rect height="1" style="fill:white;" width="1" x="92" y="18"/>
</g>
<g transform="matrix(1,0,0,1,0,123)">
<rect height="1" style="fill:white;" width="1" x="91" y="18"/>
</g>
<g transform="matrix(1,0,0,1,0,123)">
<rect height="1" width="1" x="90" y="18"/>
</g>
<g transform="matrix(1,0,0,1,0,121)">
<rect height="1" width="1" x="107" y="19"/>
</g>
<g transform="matrix(1,0,0,1,0,121)">
<rect height="1" width="1" x="106" y="19"/>
</g>
<g transform="matrix(1,0,0,1,0,121)">
<rect height="1" width="1" x="105" y="19"/>
</g>
<g transform="matrix(1,0,0,1,0,121)">
<rect height="1" width="1" x="104" y="19"/>
</g>
<g transform="matrix(1,0,0,1,0,121)">
<rect height="1" width="1.001" x="103" y="19"/>
</g>
<g transform="matrix(1,0,0,1,0,121)">
<rect height="1" style="fill:white;" width="1" x="102" y="19"/>
</g>
<g transform="matrix(1,0,0,1,0,121)">
<rect height="1" width="1" x="101" y="19"/>
</g>
<g transform="matrix(1,0,0,1,0,121)">
<rect height="1" width="1" x="100" y="19"/>
</g>
<g transform="matrix(1,0,0,1,0,121)">
<rect height="1" style="fill:rgb(223,113,38);" width="1" x="99" y="19"/>
</g>
<g transform="matrix(1,0,0,1,0,121)">
<rect height="1" style="fill:white;" width="1" x="98" y="19"/>
</g>
<g transform="matrix(1,0,0,1,0,121)">
<rect height="1" style="fill:rgb(251,242,54);" width="1" x="97" y="19"/>
</g>
<g transform="matrix(1,0,0,1,0,121)">
<rect height="1" width="1" x="96" y="19"/>
</g>
<g transform="matrix(1,0,0,1,0,121)">
<rect height="1" width="1" x="95" y="19"/>
</g>
<g transform="matrix(1,0,0,1,0,121)">
<rect height="1" style="fill:white;" width="1.001" x="94" y="19"/>
</g>
<g transform="matrix(1,0,0,1,0,121)">
<rect height="1" style="fill:white;" width="1" x="93" y="19"/>
</g>
<g transform="matrix(1,0,0,1,0,121)">
<rect height="1" style="fill:white;" width="1" x="92" y="19"/>
</g>
<g transform="matrix(1,0,0,1,0,121)">
<rect height="1" style="fill:white;" width="1" x="91" y="19"/>
</g>
<g transform="matrix(1,0,0,1,0,121)">
<rect height="1" width="1" x="90" y="19"/>
</g>
<g transform="matrix(1,0,0,1,0,119)">
<rect height="1" width="1" x="106" y="20"/>
</g>
<g transform="matrix(1,0,0,1,0,119)">
<rect height="1" style="fill:white;" width="1" x="105" y="20"/>
</g>
<g transform="matrix(1,0,0,1,0,119)">
<rect height="1" style="fill:white;" width="1" x="104" y="20"/>
</g>
<g transform="matrix(1,0,0,1,0,119)">
<rect height="1" style="fill:white;" width="1.001" x="103" y="20"/>
</g>
<g transform="matrix(1,0,0,1,0,119)">
<rect height="1" width="1" x="102" y="20"/>
</g>
<g transform="matrix(1,0,0,1,0,119)">
<rect height="1" style="fill:rgb(223,113,38);" width="1" x="101" y="20"/>
</g>
<g transform="matrix(1,0,0,1,0,119)">
<rect height="1" style="fill:rgb(223,113,38);" width="1" x="100" y="20"/>
</g>
<g transform="matrix(1,0,0,1,0,119)">
<rect height="1" style="fill:rgb(223,113,38);" width="1" x="99" y="20"/>
</g>
<g transform="matrix(1,0,0,1,0,119)">
<rect height="1" style="fill:white;" width="1" x="98" y="20"/>
</g>
<g transform="matrix(1,0,0,1,0,119)">
<rect height="1" style="fill:rgb(251,242,54);" width="1" x="97" y="20"/>
</g>
<g transform="matrix(1,0,0,1,0,119)">
<rect height="1" style="fill:rgb(251,242,54);" width="1" x="96" y="20"/>
</g>
<g transform="matrix(1,0,0,1,0,119)">
<rect height="1" style="fill:rgb(251,242,54);" width="1" x="95" y="20"/>
</g>
<g transform="matrix(1,0,0,1,0,119)">
<rect height="1" width="1.001" x="94" y="20"/>
</g>
<g transform="matrix(1,0,0,1,0,119)">
<rect height="1" style="fill:white;" width="1" x="93" y="20"/>
</g>
<g transform="matrix(1,0,0,1,0,119)">
<rect height="1" style="fill:white;" width="1" x="92" y="20"/>
</g>
<g transform="matrix(1,0,0,1,0,119)">
<rect height="1" style="fill:white;" width="1" x="91" y="20"/>
</g>
<g transform="matrix(1,0,0,1,0,119)">
<rect height="1" width="1" x="90" y="20"/>
</g>
<g transform="matrix(1,0,0,1,0,117)">
<rect height="1" width="1" x="106" y="21"/>
</g>
<g transform="matrix(1,0,0,1,0,117)">
<rect height="1" style="fill:white;" width="1" x="105" y="21"/>
</g>
<g transform="matrix(1,0,0,1,0,117)">
<rect height="1" style="fill:white;" width="1" x="104" y="21"/>
</g>
<g transform="matrix(1,0,0,1,0,117)">
<rect height="1" style="fill:white;" width="1.001" x="103" y="21"/>
</g>
<g transform="matrix(1,0,0,1,0,117)">
<rect height="1" width="1" x="102" y="21"/>
</g>
<g transform="matrix(1,0,0,1,0,117)">
<rect height="1" style="fill:rgb(223,113,38);" width="1" x="101" y="21"/>
</g>
<g transform="matrix(1,0,0,1,0,117)">
<rect height="1" style="fill:rgb(223,113,38);" width="1" x="100" y="21"/>
</g>
<g transform="matrix(1,0,0,1,0,117)">
<rect height="1" style="fill:rgb(223,113,38);" width="1" x="99" y="21"/>
</g>
<g transform="matrix(1,0,0,1,0,117)">
<rect height="1" style="fill:white;" width="1" x="98" y="21"/>
</g>
<g transform="matrix(1,0,0,1,0,117)">
<rect height="1" style="fill:rgb(251,242,54);" width="1" x="97" y="21"/>
</g>
<g transform="matrix(1,0,0,1,0,117)">
<rect height="1" style="fill:rgb(251,242,54);" width="1" x="96" y="21"/>
</g>
<g transform="matrix(1,0,0,1,0,117)">
<rect height="1" style="fill:rgb(251,242,54);" width="1" x="95" y="21"/>
</g>
<g transform="matrix(1,0,0,1,0,117)">
<rect height="1" width="1.001" x="94" y="21"/>
</g>
<g transform="matrix(1,0,0,1,0,117)">
<rect height="1" style="fill:white;" width="1" x="93" y="21"/>
</g>
<g transform="matrix(1,0,0,1,0,117)">
<rect height="1" style="fill:white;" width="1" x="92" y="21"/>
</g>
<g transform="matrix(1,0,0,1,0,117)">
<rect height="1" style="fill:white;" width="1" x="91" y="21"/>
</g>
<g transform="matrix(1,0,0,1,0,117)">
<rect height="1" width="1" x="90" y="21"/>
</g>
<g transform="matrix(1,0,0,1,0,114.999)">
<rect height="1.001" width="1" x="106" y="22"/>
</g>
<g transform="matrix(1,0,0,1,0,114.999)">
<rect height="1.001" style="fill:white;" width="1" x="105" y="22"/>
</g>
<g transform="matrix(1,0,0,1,0,114.999)">
<rect height="1.001" style="fill:white;" width="1" x="104" y="22"/>
</g>
<g transform="matrix(1,0,0,1,0,114.999)">
<rect height="1.001" style="fill:white;" width="1.001" x="103" y="22"/>
</g>
<g transform="matrix(1,0,0,1,0,114.999)">
<rect height="1.001" width="1" x="102" y="22"/>
</g>
<g transform="matrix(1,0,0,1,0,114.999)">
<rect height="1.001" style="fill:rgb(223,113,38);" width="1" x="101" y="22"/>
</g>
<g transform="matrix(1,0,0,1,0,114.999)">
<rect height="1.001" style="fill:rgb(223,113,38);" width="1" x="100" y="22"/>
</g>
<g transform="matrix(1,0,0,1,0,114.999)">
<rect height="1.001" style="fill:rgb(223,113,38);" width="1" x="99" y="22"/>
</g>
<g transform="matrix(1,0,0,1,0,114.999)">
<rect height="1.001" style="fill:white;" width="1" x="98" y="22"/>
</g>
<g transform="matrix(1,0,0,1,0,114.999)">
<rect height="1.001" style="fill:rgb(251,242,54);" width="1" x="97" y="22"/>
</g>
<g transform="matrix(1,0,0,1,0,114.999)">
<rect height="1.001" style="fill:rgb(251,242,54);" width="1" x="96" y="22"/>
</g>
<g transform="matrix(1,0,0,1,0,114.999)">
<rect height="1.001" style="fill:rgb(251,242,54);" width="1" x="95" y="22"/>
</g>
<g transform="matrix(1,0,0,1,0,114.999)">
<rect height="1.001" width="1.001" x="94" y="22"/>
</g>
<g transform="matrix(1,0,0,1,0,114.999)">
<rect height="1.001" style="fill:white;" width="1" x="93" y="22"/>
</g>
<g transform="matrix(1,0,0,1,0,114.999)">
<rect height="1.001" style="fill:white;" width="1" x="92" y="22"/>
</g>
<g transform="matrix(1,0,0,1,0,114.999)">
<rect height="1.001" style="fill:white;" width="1" x="91" y="22"/>
</g>
<g transform="matrix(1,0,0,1,0,114.999)">
<rect height="1.001" width="1" x="90" y="22"/>
</g>
<g transform="matrix(1,0,0,1,0,113)">
<rect height="1" width="1" x="106" y="23"/>
</g>
<g transform="matrix(1,0,0,1,0,113)">
<rect height="1" style="fill:white;" width="1" x="105" y="23"/>
</g>
<g transform="matrix(1,0,0,1,0,113)">
<rect height="1" style="fill:white;" width="1" x="104" y="23"/>
</g>
<g transform="matrix(1,0,0,1,0,113)">
<rect height="1" style="fill:white;" width="1.001" x="103" y="23"/>
</g>
<g transform="matrix(1,0,0,1,0,113)">
<rect height="1" width="1" x="102" y="23"/>
</g>
<g transform="matrix(1,0,0,1,0,113)">
<rect height="1" style="fill:rgb(223,113,38);" width="1" x="101" y="23"/>
</g>
<g transform="matrix(1,0,0,1,0,113)">
<rect height="1" style="fill:rgb(223,113,38);" width="1" x="100" y="23"/>
</g>
<g transform="matrix(1,0,0,1,0,113)">
<rect height="1" style="fill:rgb(223,113,38);" width="1" x="99" y="23"/>
</g>
<g transform="matrix(1,0,0,1,0,113)">
<rect height="1" style="fill:rgb(251,242,54);" width="1" x="98" y="23"/>
</g>
<g transform="matrix(1,0,0,1,0,113)">
<rect height="1" style="fill:white;" width="1" x="97" y="23"/>
</g>
<g transform="matrix(1,0,0,1,0,113)">
<rect height="1" style="fill:white;" width="1" x="96" y="23"/>
</g>
<g transform="matrix(1,0,0,1,0,113)">
<rect height="1" style="fill:rgb(251,242,54);" width="1" x="95" y="23"/>
</g>
<g transform="matrix(1,0,0,1,0,113)">
<rect height="1" width="1.001" x="94" y="23"/>
</g>
<g transform="matrix(1,0,0,1,0,113)">
<rect height="1" style="fill:white;" width="1" x="93" y="23"/>
</g>
<g transform="matrix(1,0,0,1,0,113)">
<rect height="1" style="fill:white;" width="1" x="92" y="23"/>
</g>
<g transform="matrix(1,0,0,1,0,113)">
<rect height="1" style="fill:white;" width="1" x="91" y="23"/>
</g>
<g transform="matrix(1,0,0,1,0,113)">
<rect height="1" width="1" x="90" y="23"/>
</g>
<g transform="matrix(1,0,0,1,0,111)">
<rect height="1" width="1" x="106" y="24"/>
</g>
<g transform="matrix(1,0,0,1,0,111)">
<rect height="1" style="fill:white;" width="1" x="105" y="24"/>
</g>
<g transform="matrix(1,0,0,1,0,111)">
<rect height="1" style="fill:white;" width="1" x="104" y="24"/>
</g>
<g transform="matrix(1,0,0,1,0,111)">
<rect height="1" style="fill:white;" width="1.001" x="103" y="24"/>
</g>
<g transform="matrix(1,0,0,1,0,111)">
<rect height="1" width="1" x="102" y="24"/>
</g>
<g transform="matrix(1,0,0,1,0,111)">
<rect height="1" style="fill:rgb(223,113,38);" width="1" x="101" y="24"/>
</g>
<g transform="matrix(1,0,0,1,0,111)">
<rect height="1" style="fill:rgb(251,242,54);" width="1" x="100" y="24"/>
</g>
<g transform="matrix(1,0,0,1,0,111)">
<rect height="1" style="fill:rgb(251,242,54);" width="1" x="99" y="24"/>
</g>
<g transform="matrix(1,0,0,1,0,111)">
<rect height="1" style="fill:rgb(251,242,54);" width="1" x="98" y="24"/>
</g>
<g transform="matrix(1,0,0,1,0,111)">
<rect height="1" style="fill:rgb(251,242,54);" width="1" x="97" y="24"/>
</g>
<g transform="matrix(1,0,0,1,0,111)">
<rect height="1" style="fill:rgb(251,242,54);" width="1" x="96" y="24"/>
</g>
<g transform="matrix(1,0,0,1,0,111)">
<rect height="1" style="fill:white;" width="1" x="95" y="24"/>
</g>
<g transform="matrix(1,0,0,1,0,111)">
<rect height="1" width="1.001" x="94" y="24"/>
</g>
<g transform="matrix(1,0,0,1,0,111)">
<rect height="1" style="fill:white;" width="1" x="93" y="24"/>
</g>
<g transform="matrix(1,0,0,1,0,111)">
<rect height="1" style="fill:white;" width="1" x="92" y="24"/>
</g>
<g transform="matrix(1,0,0,1,0,111)">
<rect height="1" style="fill:white;" width="1" x="91" y="24"/>
</g>
<g transform="matrix(1,0,0,1,0,111)">
<rect height="1" width="1" x="90" y="24"/>
</g>
<g transform="matrix(1,0,0,1,0,109)">
<rect height="1" width="1" x="106" y="25"/>
</g>
<g transform="matrix(1,0,0,1,0,109)">
<rect height="1" style="fill:white;" width="1" x="105" y="25"/>
</g>
<g transform="matrix(1,0,0,1,0,109)">
<rect height="1" style="fill:white;" width="1" x="104" y="25"/>
</g>
<g transform="matrix(1,0,0,1,0,109)">
<rect height="1" style="fill:white;" width="1.001" x="103" y="25"/>
</g>
<g transform="matrix(1,0,0,1,0,109)">
<rect height="1" style="fill:white;" width="1" x="102" y="25"/>
</g>
<g transform="matrix(1,0,0,1,0,109)">
<rect height="1" width="1" x="101" y="25"/>
</g>
<g transform="matrix(1,0,0,1,0,109)">
<rect height="1" width="1" x="100" y="25"/>
</g>
<g transform="matrix(1,0,0,1,0,109)">
<rect height="1" style="fill:rgb(251,242,54);" width="1" x="99" y="25"/>
</g>
<g transform="matrix(1,0,0,1,0,109)">
<rect height="1" style="fill:rgb(251,242,54);" width="1" x="98" y="25"/>
</g>
<g transform="matrix(1,0,0,1,0,109)">
<rect height="1" style="fill:rgb(251,242,54);" width="1" x="97" y="25"/>
</g>
<g transform="matrix(1,0,0,1,0,109)">
<rect height="1" width="1" x="96" y="25"/>
</g>
<g transform="matrix(1,0,0,1,0,109)">
<rect height="1" width="1" x="95" y="25"/>
</g>
<g transform="matrix(1,0,0,1,0,109)">
<rect height="1" style="fill:white;" width="1.001" x="94" y="25"/>
</g>
<g transform="matrix(1,0,0,1,0,109)">
<rect height="1" style="fill:white;" width="1" x="93" y="25"/>
</g>
<g transform="matrix(1,0,0,1,0,109)">
<rect height="1" style="fill:white;" width="1" x="92" y="25"/>
</g>
<g transform="matrix(1,0,0,1,0,109)">
<rect height="1" style="fill:white;" width="1" x="91" y="25"/>
</g>
<g transform="matrix(1,0,0,1,0,109)">
<rect height="1" width="1" x="90" y="25"/>
</g>
<g transform="matrix(1,0,0,1,0,107)">
<rect height="1" width="1" x="106" y="26"/>
</g>
<g transform="matrix(1,0,0,1,0,107)">
<rect height="1" style="fill:white;" width="1" x="105" y="26"/>
</g>
<g transform="matrix(1,0,0,1,0,107)">
<rect height="1" style="fill:white;" width="1" x="104" y="26"/>
</g>
<g transform="matrix(1,0,0,1,0,107)">
<rect height="1" style="fill:white;" width="1.001" x="103" y="26"/>
</g>
<g transform="matrix(1,0,0,1,0,107)">
<rect height="1" style="fill:white;" width="1" x="102" y="26"/>
</g>
<g transform="matrix(1,0,0,1,0,107)">
<rect height="1" style="fill:white;" width="1" x="101" y="26"/>
</g>
<g transform="matrix(1,0,0,1,0,107)">
<rect height="1" style="fill:white;" width="1" x="100" y="26"/>
</g>
<g transform="matrix(1,0,0,1,0,107)">
<rect height="1" width="1" x="99" y="26"/>
</g>
<g transform="matrix(1,0,0,1,0,107)">
<rect height="1" width="1" x="98" y="26"/>
</g>
<g transform="matrix(1,0,0,1,0,107)">
<rect height="1" width="1" x="97" y="26"/>
</g>
<g transform="matrix(1,0,0,1,0,107)">
<rect height="1" style="fill:white;" width="1" x="96" y="26"/>
</g>
<g transform="matrix(1,0,0,1,0,107)">
<rect height="1" style="fill:white;" width="1" x="95" y="26"/>
</g>
<g transform="matrix(1,0,0,1,0,107)">
<rect height="1" style="fill:white;" width="1.001" x="94" y="26"/>
</g>
<g transform="matrix(1,0,0,1,0,107)">
<rect height="1" style="fill:white;" width="1" x="93" y="26"/>
</g>
<g transform="matrix(1,0,0,1,0,107)">
<rect height="1" style="fill:white;" width="1" x="92" y="26"/>
</g>
<g transform="matrix(1,0,0,1,0,107)">
<rect height="1" style="fill:white;" width="1" x="91" y="26"/>
</g>
<g transform="matrix(1,0,0,1,0,107)">
<rect height="1" width="1" x="90" y="26"/>
</g>
<g transform="matrix(1,0,0,1,0,105)">
<rect height="1" width="1" x="106" y="27"/>
</g>
<g transform="matrix(1,0,0,1,0,105)">
<rect height="1" style="fill:white;" width="1" x="105" y="27"/>
</g>
<g transform="matrix(1,0,0,1,0,105)">
<rect height="1" style="fill:white;" width="1" x="104" y="27"/>
</g>
<g transform="matrix(1,0,0,1,0,105)">
<rect height="1" style="fill:white;" width="1.001" x="103" y="27"/>
</g>
<g transform="matrix(1,0,0,1,0,105)">
<rect height="1" style="fill:white;" width="1" x="102" y="27"/>
</g>
<g transform="matrix(1,0,0,1,0,105)">
<rect height="1" style="fill:white;" width="1" x="101" y="27"/>
</g>
<g transform="matrix(1,0,0,1,0,105)">
<rect height="1" style="fill:white;" width="1" x="100" y="27"/>
</g>
<g transform="matrix(1,0,0,1,0,105)">
<rect height="1" style="fill:white;" width="1" x="99" y="27"/>
</g>
<g transform="matrix(1,0,0,1,0,105)">
<rect height="1" style="fill:white;" width="1" x="98" y="27"/>
</g>
<g transform="matrix(1,0,0,1,0,105)">
<rect height="1" style="fill:white;" width="1" x="97" y="27"/>
</g>
<g transform="matrix(1,0,0,1,0,105)">
<rect height="1" style="fill:white;" width="1" x="96" y="27"/>
</g>
<g transform="matrix(1,0,0,1,0,105)">
<rect height="1" style="fill:white;" width="1" x="95" y="27"/>
</g>
<g transform="matrix(1,0,0,1,0,105)">
<rect height="1" style="fill:white;" width="1.001" x="94" y="27"/>
</g>
<g transform="matrix(1,0,0,1,0,105)">
<rect height="1" style="fill:white;" width="1" x="93" y="27"/>
</g>
<g transform="matrix(1,0,0,1,0,105)">
<rect height="1" style="fill:white;" width="1" x="92" y="27"/>
</g>
<g transform="matrix(1,0,0,1,0,105)">
<rect height="1" style="fill:white;" width="1" x="91" y="27"/>
</g>
<g transform="matrix(1,0,0,1,0,105)">
<rect height="1" width="1" x="90" y="27"/>
</g>
<g transform="matrix(1,0,0,1,0,103)">
<rect height="1" width="1" x="106" y="28"/>
</g>
<g transform="matrix(1,0,0,1,0,103)">
<rect height="1" style="fill:white;" width="1" x="105" y="28"/>
</g>
<g transform="matrix(1,0,0,1,0,103)">
<rect height="1" style="fill:white;" width="1" x="104" y="28"/>
</g>
<g transform="matrix(1,0,0,1,0,103)">
<rect height="1" style="fill:white;" width="1.001" x="103" y="28"/>
</g>
<g transform="matrix(1,0,0,1,0,103)">
<rect height="1" style="fill:white;" width="1" x="102" y="28"/>
</g>
<g transform="matrix(1,0,0,1,0,103)">
<rect height="1" style="fill:white;" width="1" x="101" y="28"/>
</g>
<g transform="matrix(1,0,0,1,0,103)">
<rect height="1" style="fill:white;" width="1" x="100" y="28"/>
</g>
<g transform="matrix(1,0,0,1,0,103)">
<rect height="1" style="fill:white;" width="1" x="99" y="28"/>
</g>
<g transform="matrix(1,0,0,1,0,103)">
<rect height="1" style="fill:white;" width="1" x="98" y="28"/>
</g>
<g transform="matrix(1,0,0,1,0,103)">
<rect height="1" style="fill:white;" width="1" x="97" y="28"/>
</g>
<g transform="matrix(1,0,0,1,0,103)">
<rect height="1" style="fill:white;" width="1" x="96" y="28"/>
</g>
<g transform="matrix(1,0,0,1,0,103)">
<rect height="1" style="fill:white;" width="1" x="95" y="28"/>
</g>
<g transform="matrix(1,0,0,1,0,103)">
<rect height="1" width="1.001" x="94" y="28"/>
</g>
<g transform="matrix(1,0,0,1,0,103)">
<rect height="1" width="1" x="93" y="28"/>
</g>
<g transform="matrix(1,0,0,1,0,103)">
<rect height="1" width="1" x="92" y="28"/>
</g>
<g transform="matrix(1,0,0,1,0,103)">
<rect height="1" width="1" x="91" y="28"/>
</g>
<g transform="matrix(1,0,0,1,0,103)">
<rect height="1" width="1" x="90" y="28"/>
</g>
<g transform="matrix(1,0,0,1,0,101)">
<rect height="1" width="1" x="106" y="29"/>
</g>
<g transform="matrix(1,0,0,1,0,101)">
<rect height="1" style="fill:white;" width="1" x="105" y="29"/>
</g>
<g transform="matrix(1,0,0,1,0,101)">
<rect height="1" style="fill:white;" width="1" x="104" y="29"/>
</g>
<g transform="matrix(1,0,0,1,0,101)">
<rect height="1" style="fill:white;" width="1.001" x="103" y="29"/>
</g>
<g transform="matrix(1,0,0,1,0,101)">
<rect height="1" style="fill:white;" width="1" x="102" y="29"/>
</g>
<g transform="matrix(1,0,0,1,0,101)">
<rect height="1" style="fill:white;" width="1" x="101" y="29"/>
</g>
<g transform="matrix(1,0,0,1,0,101)">
<rect height="1" style="fill:white;" width="1" x="100" y="29"/>
</g>
<g transform="matrix(1,0,0,1,0,101)">
<rect height="1" style="fill:white;" width="1" x="99" y="29"/>
</g>
<g transform="matrix(1,0,0,1,0,101)">
<rect height="1" style="fill:white;" width="1" x="98" y="29"/>
</g>
<g transform="matrix(1,0,0,1,0,101)">
<rect height="1" style="fill:white;" width="1" x="97" y="29"/>
</g>
<g transform="matrix(1,0,0,1,0,101)">
<rect height="1" style="fill:white;" width="1" x="96" y="29"/>
</g>
<g transform="matrix(1,0,0,1,0,101)">
<rect height="1" style="fill:white;" width="1" x="95" y="29"/>
</g>
<g transform="matrix(1,0,0,1,0,101)">
<rect height="1" width="1.001" x="94" y="29"/>
</g>
<g transform="matrix(1,0,0,1,0,101)">
<rect height="1" style="fill:rgb(155,173,183);" width="1" x="93" y="29"/>
</g>
<g transform="matrix(1,0,0,1,0,101)">
<rect height="1" style="fill:rgb(155,173,183);" width="1" x="92" y="29"/>
</g>
<g transform="matrix(1,0,0,1,0,101)">
<rect height="1" style="fill:rgb(155,173,183);" width="1" x="91" y="29"/>
</g>
<g transform="matrix(1,0,0,1,0,101)">
<rect height="1" width="1" x="90" y="29"/>
</g>
<g transform="matrix(1,0,0,1,0,99)">
<rect height="1" width="1" x="106" y="30"/>
</g>
<g transform="matrix(1,0,0,1,0,99)">
<rect height="1" style="fill:white;" width="1" x="105" y="30"/>
</g>
<g transform="matrix(1,0,0,1,0,99)">
<rect height="1" style="fill:white;" width="1" x="104" y="30"/>
</g>
<g transform="matrix(1,0,0,1,0,99)">
<rect height="1" style="fill:white;" width="1.001" x="103" y="30"/>
</g>
<g transform="matrix(1,0,0,1,0,99)">
<rect height="1" style="fill:white;" width="1" x="102" y="30"/>
</g>
<g transform="matrix(1,0,0,1,0,99)">
<rect height="1" style="fill:white;" width="1" x="101" y="30"/>
</g>
<g transform="matrix(1,0,0,1,0,99)">
<rect height="1" style="fill:white;" width="1" x="100" y="30"/>
</g>
<g transform="matrix(1,0,0,1,0,99)">
<rect height="1" style="fill:white;" width="1" x="99" y="30"/>
</g>
<g transform="matrix(1,0,0,1,0,99)">
<rect height="1" style="fill:white;" width="1" x="98" y="30"/>
</g>
<g transform="matrix(1,0,0,1,0,99)">
<rect height="1" style="fill:white;" width="1" x="97" y="30"/>
</g>
<g transform="matrix(1,0,0,1,0,99)">
<rect height="1" style="fill:white;" width="1" x="96" y="30"/>
</g>
<g transform="matrix(1,0,0,1,0,99)">
<rect height="1" style="fill:white;" width="1" x="95" y="30"/>
</g>
<g transform="matrix(1,0,0,1,0,99)">
<rect height="1" width="1.001" x="94" y="30"/>
</g>
<g transform="matrix(1,0,0,1,0,99)">
<rect height="1" style="fill:rgb(155,173,183);" width="1" x="93" y="30"/>
</g>
<g transform="matrix(1,0,0,1,0,99)">
<rect height="1" style="fill:rgb(155,173,183);" width="1" x="92" y="30"/>
</g>
<g transform="matrix(1,0,0,1,0,99)">
<rect height="1" width="1" x="91" y="30"/>
</g>
<g transform="matrix(1,0,0,1,0,96.999)">
<rect height="1.001" width="1" x="106" y="31"/>
</g>
<g transform="matrix(1,0,0,1,0,96.999)">
<rect height="1.001" style="fill:white;" width="1" x="105" y="31"/>
</g>
<g transform="matrix(1,0,0,1,0,96.999)">
<rect height="1.001" style="fill:white;" width="1" x="104" y="31"/>
</g>
<g transform="matrix(1,0,0,1,0,96.999)">
<rect height="1.001" style="fill:white;" width="1.001" x="103" y="31"/>
</g>
<g transform="matrix(1,0,0,1,0,96.999)">
<rect height="1.001" style="fill:white;" width="1" x="102" y="31"/>
</g>
<g transform="matrix(1,0,0,1,0,96.999)">
<rect height="1.001" style="fill:white;" width="1" x="101" y="31"/>
</g>
<g transform="matrix(1,0,0,1,0,96.999)">
<rect height="1.001" style="fill:white;" width="1" x="100" y="31"/>
</g>
<g transform="matrix(1,0,0,1,0,96.999)">
<rect height="1.001" style="fill:white;" width="1" x="99" y="31"/>
</g>
<g transform="matrix(1,0,0,1,0,96.999)">
<rect height="1.001" style="fill:white;" width="1" x="98" y="31"/>
</g>
<g transform="matrix(1,0,0,1,0,96.999)">
<rect height="1.001" style="fill:white;" width="1" x="97" y="31"/>
</g>
<g transform="matrix(1,0,0,1,0,96.999)">
<rect height="1.001" style="fill:white;" width="1" x="96" y="31"/>
</g>
<g transform="matrix(1,0,0,1,0,96.999)">
<rect height="1.001" style="fill:white;" width="1" x="95" y="31"/>
</g>
<g transform="matrix(1,0,0,1,0,96.999)">
<rect height="1.001" width="1.001" x="94" y="31"/>
</g>
<g transform="matrix(1,0,0,1,0,96.999)">
<rect height="1.001" style="fill:rgb(155,173,183);" width="1" x="93" y="31"/>
</g>
<g transform="matrix(1,0,0,1,0,96.999)">
<rect height="1.001" width="1" x="92" y="31"/>
</g>
<g transform="matrix(1,0,0,1,0,95)">
<rect height="1" width="1" x="106" y="32"/>
</g>
<g transform="matrix(1,0,0,1,0,95)">
<rect height="1" width="1" x="105" y="32"/>
</g>
<g transform="matrix(1,0,0,1,0,95)">
<rect height="1" width="1" x="104" y="32"/>
</g>
<g transform="matrix(1,0,0,1,0,95)">
<rect height="1" width="1.001" x="103" y="32"/>
</g>
<g transform="matrix(1,0,0,1,0,95)">
<rect height="1" width="1" x="102" y="32"/>
</g>
<g transform="matrix(1,0,0,1,0,95)">
<rect height="1" width="1" x="101" y="32"/>
</g>
<g transform="matrix(1,0,0,1,0,95)">
<rect height="1" width="1" x="100" y="32"/>
</g>
<g transform="matrix(1,0,0,1,0,95)">
<rect height="1" width="1" x="99" y="32"/>
</g>
<g transform="matrix(1,0,0,1,0,95)">
<rect height="1" width="1" x="98" y="32"/>
</g>
<g transform="matrix(1,0,0,1,0,95)">
<rect height="1" width="1" x="97" y="32"/>
</g>
<g transform="matrix(1,0,0,1,0,95)">
<rect height="1" width="1" x="96" y="32"/>
</g>
<g transform="matrix(1,0,0,1,0,95)">
<rect height="1" width="1" x="95" y="32"/>
</g>
<g transform="matrix(1,0,0,1,0,95)">
<rect height="1" width="1.001" x="94" y="32"/>
</g>
<g transform="matrix(1,0,0,1,0,95)">
<rect height="1" width="1" x="93" y="32"/>
</g>
</g>
</g>
</svg>